<mxfile host="Electron" modified="2023-10-25T06:49:02.648Z" agent="Mozilla/5.0 (Windows NT 10.0; Win64; x64) AppleWebKit/537.36 (KHTML, like Gecko) draw.io/21.5.1 Chrome/112.0.5615.204 Electron/24.6.0 Safari/537.36" etag="7ccQyxgMnyHPi8yL6ATe" version="21.5.1" type="device">
  <diagram name="Page-1" id="KIDx32Vuderqsv-V7Prp">
    <mxGraphModel dx="2282" dy="823" grid="1" gridSize="10" guides="1" tooltips="1" connect="1" arrows="1" fold="1" page="1" pageScale="1" pageWidth="1100" pageHeight="850" math="0" shadow="0">
      <root>
        <mxCell id="0" />
        <mxCell id="1" parent="0" />
        <mxCell id="H5_I0RlZkJi_ZXGTKbE5-1" value="Администрация" style="rounded=0;whiteSpace=wrap;html=1;fontFamily=Comic Sans MS;" parent="1" vertex="1">
          <mxGeometry x="310" y="170" width="120" height="60" as="geometry" />
        </mxCell>
        <mxCell id="H5_I0RlZkJi_ZXGTKbE5-2" value="Преподаватели" style="rounded=0;whiteSpace=wrap;html=1;fontFamily=Comic Sans MS;" parent="1" vertex="1">
          <mxGeometry x="510" y="170" width="130" height="60" as="geometry" />
        </mxCell>
        <mxCell id="H5_I0RlZkJi_ZXGTKbE5-3" value="Студенты" style="rounded=0;whiteSpace=wrap;html=1;fontFamily=Comic Sans MS;" parent="1" vertex="1">
          <mxGeometry x="740" y="170" width="130" height="60" as="geometry" />
        </mxCell>
        <mxCell id="H5_I0RlZkJi_ZXGTKbE5-4" value="Преподаватели" style="rounded=0;whiteSpace=wrap;html=1;align=right;spacingRight=6;fontFamily=Comic Sans MS;" parent="1" vertex="1">
          <mxGeometry x="180" y="380" width="250" height="40" as="geometry" />
        </mxCell>
        <mxCell id="rmAw5Ty3NltQyMpLGaNG-1" style="edgeStyle=orthogonalEdgeStyle;rounded=0;orthogonalLoop=1;jettySize=auto;html=1;" edge="1" parent="1" source="H5_I0RlZkJi_ZXGTKbE5-5" target="H5_I0RlZkJi_ZXGTKbE5-32">
          <mxGeometry relative="1" as="geometry" />
        </mxCell>
        <mxCell id="H5_I0RlZkJi_ZXGTKbE5-5" value="Студенты" style="rounded=0;whiteSpace=wrap;html=1;align=right;spacingRight=6;fontFamily=Comic Sans MS;" parent="1" vertex="1">
          <mxGeometry x="220" y="430" width="210" height="40" as="geometry" />
        </mxCell>
        <mxCell id="H5_I0RlZkJi_ZXGTKbE5-23" style="edgeStyle=orthogonalEdgeStyle;rounded=0;orthogonalLoop=1;jettySize=auto;html=1;" parent="1" source="H5_I0RlZkJi_ZXGTKbE5-7" target="H5_I0RlZkJi_ZXGTKbE5-22" edge="1">
          <mxGeometry relative="1" as="geometry">
            <Array as="points">
              <mxPoint x="60" y="500" />
              <mxPoint x="60" y="580" />
            </Array>
          </mxGeometry>
        </mxCell>
        <mxCell id="H5_I0RlZkJi_ZXGTKbE5-7" value="Управление расписанием / заменами" style="rounded=0;whiteSpace=wrap;html=1;align=right;spacingRight=6;fontFamily=Comic Sans MS;" parent="1" vertex="1">
          <mxGeometry x="180" y="520" width="250" height="40" as="geometry" />
        </mxCell>
        <mxCell id="H5_I0RlZkJi_ZXGTKbE5-9" value="Выгрузка расписания в эксель" style="rounded=0;whiteSpace=wrap;html=1;align=right;spacingRight=6;fontFamily=Comic Sans MS;" parent="1" vertex="1">
          <mxGeometry x="220" y="570" width="210" height="40" as="geometry" />
        </mxCell>
        <mxCell id="H5_I0RlZkJi_ZXGTKbE5-10" value="Создание запроса замены" style="rounded=0;whiteSpace=wrap;html=1;align=center;spacingRight=0;fontFamily=Comic Sans MS;" parent="1" vertex="1">
          <mxGeometry x="470" y="280" width="210" height="40" as="geometry" />
        </mxCell>
        <mxCell id="H5_I0RlZkJi_ZXGTKbE5-11" value="Выгрузка расписания в эксель" style="rounded=0;whiteSpace=wrap;html=1;align=center;spacingRight=0;fontFamily=Comic Sans MS;" parent="1" vertex="1">
          <mxGeometry x="470" y="330" width="210" height="40" as="geometry" />
        </mxCell>
        <mxCell id="H5_I0RlZkJi_ZXGTKbE5-13" value="Куратор" style="rounded=0;whiteSpace=wrap;html=1;align=center;spacingRight=0;fontFamily=Comic Sans MS;" parent="1" vertex="1">
          <mxGeometry x="515" y="440" width="120" height="40" as="geometry" />
        </mxCell>
        <mxCell id="H5_I0RlZkJi_ZXGTKbE5-14" value="Отслеживание успеваемости студентов" style="rounded=0;whiteSpace=wrap;html=1;align=center;spacingRight=0;fontFamily=Comic Sans MS;" parent="1" vertex="1">
          <mxGeometry x="470" y="490" width="210" height="40" as="geometry" />
        </mxCell>
        <mxCell id="H5_I0RlZkJi_ZXGTKbE5-16" value="Выставление оценок" style="rounded=0;whiteSpace=wrap;html=1;align=center;spacingRight=0;fontFamily=Comic Sans MS;" parent="1" vertex="1">
          <mxGeometry x="470" y="390" width="210" height="40" as="geometry" />
        </mxCell>
        <mxCell id="H5_I0RlZkJi_ZXGTKbE5-17" value="Уведомление в телеграмм" style="rounded=0;whiteSpace=wrap;html=1;align=right;spacingRight=6;fontFamily=Comic Sans MS;" parent="1" vertex="1">
          <mxGeometry x="220" y="680" width="210" height="40" as="geometry" />
        </mxCell>
        <mxCell id="H5_I0RlZkJi_ZXGTKbE5-18" value="Расписание / Замены" style="text;html=1;strokeColor=none;fillColor=none;align=right;verticalAlign=middle;whiteSpace=wrap;rounded=0;spacingRight=2;fontStyle=1" parent="1" vertex="1">
          <mxGeometry x="220" y="480" width="210" height="30" as="geometry" />
        </mxCell>
        <mxCell id="H5_I0RlZkJi_ZXGTKbE5-19" value="Управление пользователями" style="text;html=1;strokeColor=none;fillColor=none;align=right;verticalAlign=middle;whiteSpace=wrap;rounded=0;spacingRight=2;fontStyle=1" parent="1" vertex="1">
          <mxGeometry x="220" y="340" width="210" height="30" as="geometry" />
        </mxCell>
        <mxCell id="H5_I0RlZkJi_ZXGTKbE5-20" value="Телеграмм" style="text;html=1;strokeColor=none;fillColor=none;align=right;verticalAlign=middle;whiteSpace=wrap;rounded=0;spacingRight=2;fontStyle=1" parent="1" vertex="1">
          <mxGeometry x="220" y="640" width="210" height="30" as="geometry" />
        </mxCell>
        <mxCell id="H5_I0RlZkJi_ZXGTKbE5-21" value="Расписание / Замены" style="text;html=1;strokeColor=none;fillColor=none;align=center;verticalAlign=middle;whiteSpace=wrap;rounded=0;fontStyle=1" parent="1" vertex="1">
          <mxGeometry x="470" y="240" width="210" height="30" as="geometry" />
        </mxCell>
        <mxCell id="H5_I0RlZkJi_ZXGTKbE5-22" value="Управление расписанием / заменами" style="rounded=0;align=left;spacingRight=6;fontFamily=Comic Sans MS;verticalAlign=bottom;labelPosition=center;verticalLabelPosition=top;html=1;whiteSpace=wrap;horizontal=1;spacingBottom=6;labelBorderColor=none;fillColor=none;" parent="1" vertex="1">
          <mxGeometry x="-320" y="510" width="290" height="220" as="geometry" />
        </mxCell>
        <mxCell id="H5_I0RlZkJi_ZXGTKbE5-25" value="Распределение запросов на замены от преподавателей" style="rounded=0;whiteSpace=wrap;html=1;align=center;spacingRight=0;fontFamily=Comic Sans MS;" parent="1" vertex="1">
          <mxGeometry x="-310" y="520" width="270" height="50" as="geometry" />
        </mxCell>
        <mxCell id="H5_I0RlZkJi_ZXGTKbE5-26" value="Создание / Удаление замен" style="rounded=0;whiteSpace=wrap;html=1;align=center;spacingRight=0;fontFamily=Comic Sans MS;" parent="1" vertex="1">
          <mxGeometry x="-310" y="580" width="270" height="50" as="geometry" />
        </mxCell>
        <mxCell id="H5_I0RlZkJi_ZXGTKbE5-32" value="Управление студентами" style="rounded=0;align=left;spacingRight=6;fontFamily=Comic Sans MS;verticalAlign=bottom;labelPosition=center;verticalLabelPosition=top;html=1;whiteSpace=wrap;horizontal=1;spacingBottom=6;labelBorderColor=none;fillColor=none;" parent="1" vertex="1">
          <mxGeometry x="-320" y="190" width="290" height="220" as="geometry" />
        </mxCell>
        <mxCell id="H5_I0RlZkJi_ZXGTKbE5-33" value="" style="rounded=0;whiteSpace=wrap;html=1;align=center;spacingRight=0;fontFamily=Comic Sans MS;" parent="1" vertex="1">
          <mxGeometry x="-310" y="200" width="270" height="50" as="geometry" />
        </mxCell>
        <mxCell id="rmAw5Ty3NltQyMpLGaNG-2" value="Доступ" style="text;html=1;strokeColor=none;fillColor=none;align=right;verticalAlign=middle;whiteSpace=wrap;rounded=0;spacingRight=2;fontStyle=1" vertex="1" parent="1">
          <mxGeometry x="220" y="240" width="210" height="30" as="geometry" />
        </mxCell>
        <mxCell id="rmAw5Ty3NltQyMpLGaNG-3" value="Доступ к функционалу администрации на основе доступа провиля администратора" style="rounded=0;whiteSpace=wrap;html=1;align=right;spacingRight=6;fontFamily=Comic Sans MS;" vertex="1" parent="1">
          <mxGeometry x="180" y="280" width="250" height="50" as="geometry" />
        </mxCell>
      </root>
    </mxGraphModel>
  </diagram>
</mxfile>
